<?xml version="1.0" encoding="UTF-8" standalone="no"?>
<!-- Created with Inkscape (http://www.inkscape.org/) -->
<svg xmlns:dc="http://purl.org/dc/elements/1.1/" xmlns:cc="http://creativecommons.org/ns#" xmlns:rdf="http://www.w3.org/1999/02/22-rdf-syntax-ns#" xmlns:svg="http://www.w3.org/2000/svg" xmlns="http://www.w3.org/2000/svg" xmlns:sodipodi="http://sodipodi.sourceforge.net/DTD/sodipodi-0.dtd" xmlns:inkscape="http://www.inkscape.org/namespaces/inkscape" id="svg2985" version="1.1" inkscape:version="0.48.5 r10040" width="445.75" height="445.75" sodipodi:docname="Chaospott_schwarzer_Rand.svg" inkscape:export-filename="/Users/andreas/Projekte/Design/Chaospott Logo/logo.png" inkscape:export-xdpi="706.66998" inkscape:export-ydpi="706.66998">
  <metadata id="metadata2991">
    <rdf:RDF>
      <cc:Work rdf:about="">
        <dc:format>image/svg+xml</dc:format>
        <dc:type rdf:resource="http://purl.org/dc/dcmitype/StillImage"/>
        <dc:title/>
      </cc:Work>
    </rdf:RDF>
  </metadata>
  <defs id="defs2989"/>
  <sodipodi:namedview pagecolor="#ff0000" bordercolor="#666666" borderopacity="1" objecttolerance="10" gridtolerance="10" guidetolerance="10" inkscape:pageopacity="1" inkscape:pageshadow="2" inkscape:window-width="1596" inkscape:window-height="1737" id="namedview2987" showgrid="false" fit-margin-top="0" fit-margin-left="0" fit-margin-right="0" fit-margin-bottom="0" inkscape:zoom="1" inkscape:cx="88.129809" inkscape:cy="296.40422" inkscape:window-x="1600" inkscape:window-y="30" inkscape:window-maximized="0" inkscape:current-layer="layer8" showguides="true" inkscape:guide-bbox="true">
    <sodipodi:guide orientation="0,1" position="-12.625,222.875" id="guide3081"/>
    <sodipodi:guide orientation="1,0" position="222.875,-13.625" id="guide3877"/>
    <sodipodi:guide orientation="0,1" position="387.5625,158.375" id="guide5060"/>
  </sodipodi:namedview>
  <g inkscape:groupmode="layer" id="layer8" inkscape:label="merged" sodipodi:insensitive="true">
    <rect style="fill:none;stroke:none;display:inline" id="rect4060" width="445" height="445" x="0.375" y="0.375" inkscape:export-filename="/home/m/Bilder/chaospottlogo/tmp.png" inkscape:export-xdpi="70.667412" inkscape:export-ydpi="70.667412"/>
    <path style="opacity:0.8872549;fill:#ffffff;fill-opacity:1;stroke:#000000;stroke-width:10;stroke-miterlimit:4;stroke-opacity:1;stroke-dasharray:none;display:inline" d="m 222.92865,11.682793 c -116.55647,0 -211.031248,94.474777 -211.031248,211.031247 0,116.55647 94.474778,211.03125 211.031248,211.03125 116.55647,0 211.03125,-94.47478 211.03125,-211.03125 0,-116.55647 -94.47478,-211.031247 -211.03125,-211.031247 z" id="path5058" inkscape:connector-curvature="0"/>
    <g transform="matrix(0.04439256,0,0,0.04439256,326.35819,201.29275)" id="g5389" style="stroke:#000000;stroke-opacity:1;display:inline">
      <path id="path5391" d="m 309.69149,358.64455 c -5.65441,0.72283 -11.30938,1.58433 -16.92955,2.60706 -0.0718,0.0135 -0.14509,0.0151 -0.21688,0.0285 C 150.20807,383.03492 29.334127,501.31373 5.8737404,643.55064 c -0.01074,0.0651 -0.026798,0.12895 -0.037492,0.19405 -21.3350264,112.37915 18.3868556,232.4327 101.2030016,310.95058 0.0318,0.0302 0.0734,0.0507 0.10518,0.0807 33.79894,33.15524 74.44277,58.10593 118.32274,74.44263 101.09799,37.6393 219.43377,29.4654 311.23783,-30.06937 0.0783,-0.0506 0.15334,-0.10592 0.23155,-0.15656 114.99045,-69.04346 181.65586,-207.82988 162.63909,-340.706 -10e-4,-0.0103 -0.003,-0.0206 -0.004,-0.0309 -0.003,-0.0206 -0.005,-0.0413 -0.008,-0.062 -8.41649,-64.74172 -35.62056,-127.07488 -77.94468,-176.9021 -0.0239,-0.029 -0.0502,-0.0559 -0.0742,-0.0847 -73.46095,-89.01994 -191.9794,-135.93359 -306.20604,-123.2427 -1.8863,0.20961 -3.7622,0.43943 -5.647,0.6804 z m 3.20127,14.7395 c 1.36201,-0.16852 2.73023,-0.35641 4.09379,-0.50749 23.22507,-2.56979 46.6743,-2.53462 69.86735,-0.089 L 349.83575,653.99388 312.89276,373.384 z m -14.84312,2.17477 36.37602,276.30329 -106.64398,-257.47036 c 21.61137,-8.56722 44.15159,-14.79564 67.24798,-18.30926 l 0.12393,-0.0163 0.0929,-0.0122 c 0.93284,-0.17041 1.86909,-0.33351 2.8031,-0.49511 z m 103.68193,-0.853 c 24.20403,3.64992 48.02644,9.90504 70.91234,18.62214 l -107.53935,259.56986 36.62701,-278.192 z M 213.95882,400.24608 319.25562,654.42664 152.11623,436.62942 c 19.28493,-14.28014 40.01945,-26.53772 61.84259,-36.38334 z m 272.57157,-1.27615 c 22.61331,9.75955 44.15604,21.96723 64.10961,36.38076 L 378.59078,659.5696 486.53039,398.96993 z M 140.24553,445.81999 309.96898,666.96481 88.800436,497.25621 c 15.276094,-18.87142 32.565194,-36.14608 51.445094,-51.43622 z m 422.36514,-1.42314 c 17.3336,13.76694 33.28503,29.29249 47.43825,46.4555 l 0.035,0.0269 0.0391,0.0579 c 1.66672,1.96082 3.29347,3.93945 4.91123,5.94103 L 389.64672,669.80785 562.61067,444.39685 z M 79.084118,509.88247 297.4828,677.46567 42.919283,572.04095 c 9.71108,-21.94018 21.914589,-42.78135 36.164835,-62.15848 z M 37.176208,585.8777 292.61053,691.69208 19.004047,655.65913 c 0.49202,-3.10493 1.024633,-6.19772 1.613703,-9.29011 l 0.01875,-0.097 0.01875,-0.097 c 3.399227,-20.69086 8.99716,-40.86714 16.520966,-60.29728 z M 624.19393,508.75295 c 14.24884,19.45082 26.26998,40.54739 35.89664,62.69465 L 404.53376,677.30383 624.19393,508.75295 z M 16.988784,670.51804 291.49542,706.68465 17.453859,742.7629 C 14.608286,718.81626 14.375971,694.54565 16.988784,670.51804 z M 665.76309,585.32592 c 8.58472,22.48112 14.741,45.91319 18.22056,69.68667 L 410.80961,690.97664 665.76309,585.32592 z M 19.566665,757.61418 299.68082,720.73645 39.493012,828.52618 c -9.193746,-22.82598 -15.91934,-46.64967 -19.926347,-70.912 z m 386.973325,-50.946 279.37057,-36.77984 c 2.70652,24.47537 2.38432,49.15545 -0.69751,73.46959 L 406.53999,706.66818 z m -2.91133,14.75624 279.34817,36.78999 c -4.19704,24.12206 -11.10791,47.78501 -20.44691,70.45915 L 403.62866,721.42442 z M 304.96688,734.79173 82.842068,905.21155 C 68.067722,885.71321 55.509009,864.57378 45.374246,842.31399 L 304.96688,734.79173 z m 95.32077,1.47703 256.23501,106.15025 c -10.15407,21.88219 -22.61447,42.72472 -37.1351,61.97102 L 400.28765,736.26876 z M 308.3721,751.08036 143.16051,966.4246 c -8.92464,-6.98059 -17.48875,-14.46174 -25.61718,-22.44203 l -0.0351,-0.0269 -0.0701,-0.0538 c -8.95469,-8.48309 -17.38379,-17.48343 -25.262836,-26.93296 L 308.37211,751.08041 z m 12.72398,8.06443 -103.77639,250.56411 c -21.87682,-9.1822 -42.76903,-20.64061 -62.13878,-34.33925 L 321.09608,759.14479 z m 72.31524,-8.07058 216.05363,165.81164 c -15.14934,18.2045 -32.22577,34.79593 -51.00578,49.26657 L 393.41132,751.07421 z m -16.70286,2.89241 169.61826,221.06411 c -5.64911,3.93063 -11.41811,7.68667 -17.33823,11.23415 l -0.1157,0.0788 -0.11584,0.0778 c -14.55972,9.46056 -29.86694,17.53312 -45.68831,24.29632 L 376.70846,753.96662 z m -41.33624,9.94933 -35.38917,268.91985 c -23.43458,-3.5443 -46.50124,-9.4339 -68.70025,-17.6211 L 335.37222,763.91595 z m 28.8051,-0.98702 104.93881,253.37667 c -22.37199,8.3112 -45.63931,14.0645 -69.30108,17.3188 L 364.17732,762.92893 z m -14.34549,5.95466 35.07892,266.45081 c -23.27471,2.1654 -46.79566,1.9439 -70.08103,-0.5763 l 35.00211,-265.87451 z" style="font-size:medium;font-style:normal;font-variant:normal;font-weight:normal;font-stretch:normal;text-indent:0;text-align:start;text-decoration:none;line-height:normal;letter-spacing:normal;word-spacing:normal;text-transform:none;direction:ltr;block-progression:tb;writing-mode:lr-tb;text-anchor:start;baseline-shift:baseline;color:#000000;fill:#000000;fill-opacity:1;stroke:#000000;stroke-width:15;stroke-opacity:1;marker:none;visibility:visible;display:inline;overflow:visible;enable-background:accumulate;font-family:Sans;-inkscape-font-specification:Sans" inkscape:connector-curvature="0"/>
      <path sodipodi:end="3.1415927" sodipodi:start="0" transform="matrix(1.5476688,0,0,2.9265796,18.046801,-1429.1168)" d="m 431.52776,730.33624 a 216.41182,112.09354 0 1 1 -432.8236432,0 l 216.4118232,0 z" sodipodi:ry="112.09354" sodipodi:rx="216.41182" sodipodi:cy="730.33624" sodipodi:cx="215.11594" id="path5393" style="fill:#000000;fill-opacity:1;stroke:#000000;stroke-width:15;stroke-miterlimit:4;stroke-opacity:1;stroke-dasharray:none" sodipodi:type="arc"/>
    </g>
    <g id="g5383" transform="matrix(0.04439256,0,0,0.04439256,275.44069,201.29275)" style="stroke:#000000;stroke-opacity:1;display:inline">
      <path inkscape:connector-curvature="0" style="font-size:medium;font-style:normal;font-variant:normal;font-weight:normal;font-stretch:normal;text-indent:0;text-align:start;text-decoration:none;line-height:normal;letter-spacing:normal;word-spacing:normal;text-transform:none;direction:ltr;block-progression:tb;writing-mode:lr-tb;text-anchor:start;baseline-shift:baseline;color:#000000;fill:#000000;fill-opacity:1;stroke:#000000;stroke-width:15;stroke-opacity:1;marker:none;visibility:visible;display:inline;overflow:visible;enable-background:accumulate;font-family:Sans;-inkscape-font-specification:Sans" d="m 309.69149,358.64455 c -5.65441,0.72283 -11.30938,1.58433 -16.92955,2.60706 -0.0718,0.0135 -0.14509,0.0151 -0.21688,0.0285 C 150.20807,383.03492 29.334127,501.31373 5.8737404,643.55064 c -0.01074,0.0651 -0.026798,0.12895 -0.037492,0.19405 -21.3350264,112.37915 18.3868556,232.4327 101.2030016,310.95058 0.0318,0.0302 0.0734,0.0507 0.10518,0.0807 33.79894,33.15524 74.44277,58.10593 118.32274,74.44263 101.09799,37.6393 219.43377,29.4654 311.23783,-30.06937 0.0783,-0.0506 0.15334,-0.10592 0.23155,-0.15656 114.99045,-69.04346 181.65586,-207.82988 162.63909,-340.706 -10e-4,-0.0103 -0.003,-0.0206 -0.004,-0.0309 -0.003,-0.0206 -0.005,-0.0413 -0.008,-0.062 -8.41649,-64.74172 -35.62056,-127.07488 -77.94468,-176.9021 -0.0239,-0.029 -0.0502,-0.0559 -0.0742,-0.0847 -73.46095,-89.01994 -191.9794,-135.93359 -306.20604,-123.2427 -1.8863,0.20961 -3.7622,0.43943 -5.647,0.6804 z m 3.20127,14.7395 c 1.36201,-0.16852 2.73023,-0.35641 4.09379,-0.50749 23.22507,-2.56979 46.6743,-2.53462 69.86735,-0.089 L 349.83575,653.99388 312.89276,373.384 z m -14.84312,2.17477 36.37602,276.30329 -106.64398,-257.47036 c 21.61137,-8.56722 44.15159,-14.79564 67.24798,-18.30926 l 0.12393,-0.0163 0.0929,-0.0122 c 0.93284,-0.17041 1.86909,-0.33351 2.8031,-0.49511 z m 103.68193,-0.853 c 24.20403,3.64992 48.02644,9.90504 70.91234,18.62214 l -107.53935,259.56986 36.62701,-278.192 z M 213.95882,400.24608 319.25562,654.42664 152.11623,436.62942 c 19.28493,-14.28014 40.01945,-26.53772 61.84259,-36.38334 z m 272.57157,-1.27615 c 22.61331,9.75955 44.15604,21.96723 64.10961,36.38076 L 378.59078,659.5696 486.53039,398.96993 z M 140.24553,445.81999 309.96898,666.96481 88.800436,497.25621 c 15.276094,-18.87142 32.565194,-36.14608 51.445094,-51.43622 z m 422.36514,-1.42314 c 17.3336,13.76694 33.28503,29.29249 47.43825,46.4555 l 0.035,0.0269 0.0391,0.0579 c 1.66672,1.96082 3.29347,3.93945 4.91123,5.94103 L 389.64672,669.80785 562.61067,444.39685 z M 79.084118,509.88247 297.4828,677.46567 42.919283,572.04095 c 9.71108,-21.94018 21.914589,-42.78135 36.164835,-62.15848 z M 37.176208,585.8777 292.61053,691.69208 19.004047,655.65913 c 0.49202,-3.10493 1.024633,-6.19772 1.613703,-9.29011 l 0.01875,-0.097 0.01875,-0.097 c 3.399227,-20.69086 8.99716,-40.86714 16.520966,-60.29728 z M 624.19393,508.75295 c 14.24884,19.45082 26.26998,40.54739 35.89664,62.69465 L 404.53376,677.30383 624.19393,508.75295 z M 16.988784,670.51804 291.49542,706.68465 17.453859,742.7629 C 14.608286,718.81626 14.375971,694.54565 16.988784,670.51804 z M 665.76309,585.32592 c 8.58472,22.48112 14.741,45.91319 18.22056,69.68667 L 410.80961,690.97664 665.76309,585.32592 z M 19.566665,757.61418 299.68082,720.73645 39.493012,828.52618 c -9.193746,-22.82598 -15.91934,-46.64967 -19.926347,-70.912 z m 386.973325,-50.946 279.37057,-36.77984 c 2.70652,24.47537 2.38432,49.15545 -0.69751,73.46959 L 406.53999,706.66818 z m -2.91133,14.75624 279.34817,36.78999 c -4.19704,24.12206 -11.10791,47.78501 -20.44691,70.45915 L 403.62866,721.42442 z M 304.96688,734.79173 82.842068,905.21155 C 68.067722,885.71321 55.509009,864.57378 45.374246,842.31399 L 304.96688,734.79173 z m 95.32077,1.47703 256.23501,106.15025 c -10.15407,21.88219 -22.61447,42.72472 -37.1351,61.97102 L 400.28765,736.26876 z M 308.3721,751.08036 143.16051,966.4246 c -8.92464,-6.98059 -17.48875,-14.46174 -25.61718,-22.44203 l -0.0351,-0.0269 -0.0701,-0.0538 c -8.95469,-8.48309 -17.38379,-17.48343 -25.262836,-26.93296 L 308.37211,751.08041 z m 12.72398,8.06443 -103.77639,250.56411 c -21.87682,-9.1822 -42.76903,-20.64061 -62.13878,-34.33925 L 321.09608,759.14479 z m 72.31524,-8.07058 216.05363,165.81164 c -15.14934,18.2045 -32.22577,34.79593 -51.00578,49.26657 L 393.41132,751.07421 z m -16.70286,2.89241 169.61826,221.06411 c -5.64911,3.93063 -11.41811,7.68667 -17.33823,11.23415 l -0.1157,0.0788 -0.11584,0.0778 c -14.55972,9.46056 -29.86694,17.53312 -45.68831,24.29632 L 376.70846,753.96662 z m -41.33624,9.94933 -35.38917,268.91985 c -23.43458,-3.5443 -46.50124,-9.4339 -68.70025,-17.6211 L 335.37222,763.91595 z m 28.8051,-0.98702 104.93881,253.37667 c -22.37199,8.3112 -45.63931,14.0645 -69.30108,17.3188 L 364.17732,762.92893 z m -14.34549,5.95466 35.07892,266.45081 c -23.27471,2.1654 -46.79566,1.9439 -70.08103,-0.5763 l 35.00211,-265.87451 z" id="path5385"/>
      <path sodipodi:type="arc" style="fill:#000000;fill-opacity:1;stroke:#000000;stroke-width:15;stroke-miterlimit:4;stroke-opacity:1;stroke-dasharray:none" id="path5387" sodipodi:cx="215.11594" sodipodi:cy="730.33624" sodipodi:rx="216.41182" sodipodi:ry="112.09354" d="m 431.52776,730.33624 a 216.41182,112.09354 0 1 1 -432.8236432,0 l 216.4118232,0 z" transform="matrix(1.5476688,0,0,2.9265796,18.046801,-1429.1168)" sodipodi:start="0" sodipodi:end="3.1415927"/>
    </g>
    <g style="display:inline" transform="matrix(0.04439256,0,0,0.04439256,280.35819,167.54275)" id="g5214">
      <path id="path3765" d="m 309.69149,358.64455 c -5.65441,0.72283 -11.30938,1.58433 -16.92955,2.60706 -0.0718,0.0135 -0.14509,0.0151 -0.21688,0.0285 C 150.20807,383.03492 29.334127,501.31373 5.8737404,643.55064 c -0.01074,0.0651 -0.026798,0.12895 -0.037492,0.19405 -21.3350264,112.37915 18.3868556,232.4327 101.2030016,310.95058 0.0318,0.0302 0.0734,0.0507 0.10518,0.0807 33.79894,33.15524 74.44277,58.10593 118.32274,74.44263 101.09799,37.6393 219.43377,29.4654 311.23783,-30.06937 0.0783,-0.0506 0.15334,-0.10592 0.23155,-0.15656 114.99045,-69.04346 181.65586,-207.82988 162.63909,-340.706 -10e-4,-0.0103 -0.003,-0.0206 -0.004,-0.0309 -0.003,-0.0206 -0.005,-0.0413 -0.008,-0.062 -8.41649,-64.74172 -35.62056,-127.07488 -77.94468,-176.9021 -0.0239,-0.029 -0.0502,-0.0559 -0.0742,-0.0847 -73.46095,-89.01994 -191.9794,-135.93359 -306.20604,-123.2427 -1.8863,0.20961 -3.7622,0.43943 -5.647,0.6804 z m 3.20127,14.7395 c 1.36201,-0.16852 2.73023,-0.35641 4.09379,-0.50749 23.22507,-2.56979 46.6743,-2.53462 69.86735,-0.089 L 349.83575,653.99388 312.89276,373.384 z m -14.84312,2.17477 36.37602,276.30329 -106.64398,-257.47036 c 21.61137,-8.56722 44.15159,-14.79564 67.24798,-18.30926 l 0.12393,-0.0163 0.0929,-0.0122 c 0.93284,-0.17041 1.86909,-0.33351 2.8031,-0.49511 z m 103.68193,-0.853 c 24.20403,3.64992 48.02644,9.90504 70.91234,18.62214 l -107.53935,259.56986 36.62701,-278.192 z M 213.95882,400.24608 319.25562,654.42664 152.11623,436.62942 c 19.28493,-14.28014 40.01945,-26.53772 61.84259,-36.38334 z m 272.57157,-1.27615 c 22.61331,9.75955 44.15604,21.96723 64.10961,36.38076 L 378.59078,659.5696 486.53039,398.96993 z M 140.24553,445.81999 309.96898,666.96481 88.800436,497.25621 c 15.276094,-18.87142 32.565194,-36.14608 51.445094,-51.43622 z m 422.36514,-1.42314 c 17.3336,13.76694 33.28503,29.29249 47.43825,46.4555 l 0.035,0.0269 0.0391,0.0579 c 1.66672,1.96082 3.29347,3.93945 4.91123,5.94103 L 389.64672,669.80785 562.61067,444.39685 z M 79.084118,509.88247 297.4828,677.46567 42.919283,572.04095 c 9.71108,-21.94018 21.914589,-42.78135 36.164835,-62.15848 z M 37.176208,585.8777 292.61053,691.69208 19.004047,655.65913 c 0.49202,-3.10493 1.024633,-6.19772 1.613703,-9.29011 l 0.01875,-0.097 0.01875,-0.097 c 3.399227,-20.69086 8.99716,-40.86714 16.520966,-60.29728 z M 624.19393,508.75295 c 14.24884,19.45082 26.26998,40.54739 35.89664,62.69465 L 404.53376,677.30383 624.19393,508.75295 z M 16.988784,670.51804 291.49542,706.68465 17.453859,742.7629 C 14.608286,718.81626 14.375971,694.54565 16.988784,670.51804 z M 665.76309,585.32592 c 8.58472,22.48112 14.741,45.91319 18.22056,69.68667 L 410.80961,690.97664 665.76309,585.32592 z M 19.566665,757.61418 299.68082,720.73645 39.493012,828.52618 c -9.193746,-22.82598 -15.91934,-46.64967 -19.926347,-70.912 z m 386.973325,-50.946 279.37057,-36.77984 c 2.70652,24.47537 2.38432,49.15545 -0.69751,73.46959 L 406.53999,706.66818 z m -2.91133,14.75624 279.34817,36.78999 c -4.19704,24.12206 -11.10791,47.78501 -20.44691,70.45915 L 403.62866,721.42442 z M 304.96688,734.79173 82.842068,905.21155 C 68.067722,885.71321 55.509009,864.57378 45.374246,842.31399 L 304.96688,734.79173 z m 95.32077,1.47703 256.23501,106.15025 c -10.15407,21.88219 -22.61447,42.72472 -37.1351,61.97102 L 400.28765,736.26876 z M 308.3721,751.08036 143.16051,966.4246 c -8.92464,-6.98059 -17.48875,-14.46174 -25.61718,-22.44203 l -0.0351,-0.0269 -0.0701,-0.0538 c -8.95469,-8.48309 -17.38379,-17.48343 -25.262836,-26.93296 L 308.37211,751.08041 z m 12.72398,8.06443 -103.77639,250.56411 c -21.87682,-9.1822 -42.76903,-20.64061 -62.13878,-34.33925 L 321.09608,759.14479 z m 72.31524,-8.07058 216.05363,165.81164 c -15.14934,18.2045 -32.22577,34.79593 -51.00578,49.26657 L 393.41132,751.07421 z m -16.70286,2.89241 169.61826,221.06411 c -5.64911,3.93063 -11.41811,7.68667 -17.33823,11.23415 l -0.1157,0.0788 -0.11584,0.0778 c -14.55972,9.46056 -29.86694,17.53312 -45.68831,24.29632 L 376.70846,753.96662 z m -41.33624,9.94933 -35.38917,268.91985 c -23.43458,-3.5443 -46.50124,-9.4339 -68.70025,-17.6211 L 335.37222,763.91595 z m 28.8051,-0.98702 104.93881,253.37667 c -22.37199,8.3112 -45.63931,14.0645 -69.30108,17.3188 L 364.17732,762.92893 z m -14.34549,5.95466 35.07892,266.45081 c -23.27471,2.1654 -46.79566,1.9439 -70.08103,-0.5763 l 35.00211,-265.87451 z" style="font-size:medium;font-style:normal;font-variant:normal;font-weight:normal;font-stretch:normal;text-indent:0;text-align:start;text-decoration:none;line-height:normal;letter-spacing:normal;word-spacing:normal;text-transform:none;direction:ltr;block-progression:tb;writing-mode:lr-tb;text-anchor:start;baseline-shift:baseline;color:#000000;fill:#000000;fill-opacity:1;stroke:#000000;stroke-width:15;stroke-opacity:1;marker:none;visibility:visible;display:inline;overflow:visible;enable-background:accumulate;font-family:Sans;-inkscape-font-specification:Sans" inkscape:connector-curvature="0"/>
      <path sodipodi:end="3.1415927" sodipodi:start="0" transform="matrix(1.5476688,0,0,2.9265796,18.046801,-1429.1168)" d="m 431.52776,730.33624 a 216.41182,112.09354 0 1 1 -432.8236432,0 l 216.4118232,0 z" sodipodi:ry="112.09354" sodipodi:rx="216.41182" sodipodi:cy="730.33624" sodipodi:cx="215.11594" id="path4155" style="fill:#000000;fill-opacity:1;stroke:#000000;stroke-width:15;stroke-miterlimit:4;stroke-opacity:1;stroke-dasharray:none" sodipodi:type="arc"/>
    </g>
    <g id="g5349" transform="matrix(0.04439256,0,0,0.04439256,322.65633,167.54275)" style="stroke:#000000;stroke-opacity:1;display:inline">
      <path inkscape:connector-curvature="0" style="font-size:medium;font-style:normal;font-variant:normal;font-weight:normal;font-stretch:normal;text-indent:0;text-align:start;text-decoration:none;line-height:normal;letter-spacing:normal;word-spacing:normal;text-transform:none;direction:ltr;block-progression:tb;writing-mode:lr-tb;text-anchor:start;baseline-shift:baseline;color:#000000;fill:#000000;fill-opacity:1;stroke:#000000;stroke-width:15;stroke-opacity:1;marker:none;visibility:visible;display:inline;overflow:visible;enable-background:accumulate;font-family:Sans;-inkscape-font-specification:Sans" d="m 309.69149,358.64455 c -5.65441,0.72283 -11.30938,1.58433 -16.92955,2.60706 -0.0718,0.0135 -0.14509,0.0151 -0.21688,0.0285 C 150.20807,383.03492 29.334127,501.31373 5.8737404,643.55064 c -0.01074,0.0651 -0.026798,0.12895 -0.037492,0.19405 -21.3350264,112.37915 18.3868556,232.4327 101.2030016,310.95058 0.0318,0.0302 0.0734,0.0507 0.10518,0.0807 33.79894,33.15524 74.44277,58.10593 118.32274,74.44263 101.09799,37.6393 219.43377,29.4654 311.23783,-30.06937 0.0783,-0.0506 0.15334,-0.10592 0.23155,-0.15656 114.99045,-69.04346 181.65586,-207.82988 162.63909,-340.706 -10e-4,-0.0103 -0.003,-0.0206 -0.004,-0.0309 -0.003,-0.0206 -0.005,-0.0413 -0.008,-0.062 -8.41649,-64.74172 -35.62056,-127.07488 -77.94468,-176.9021 -0.0239,-0.029 -0.0502,-0.0559 -0.0742,-0.0847 -73.46095,-89.01994 -191.9794,-135.93359 -306.20604,-123.2427 -1.8863,0.20961 -3.7622,0.43943 -5.647,0.6804 z m 3.20127,14.7395 c 1.36201,-0.16852 2.73023,-0.35641 4.09379,-0.50749 23.22507,-2.56979 46.6743,-2.53462 69.86735,-0.089 L 349.83575,653.99388 312.89276,373.384 z m -14.84312,2.17477 36.37602,276.30329 -106.64398,-257.47036 c 21.61137,-8.56722 44.15159,-14.79564 67.24798,-18.30926 l 0.12393,-0.0163 0.0929,-0.0122 c 0.93284,-0.17041 1.86909,-0.33351 2.8031,-0.49511 z m 103.68193,-0.853 c 24.20403,3.64992 48.02644,9.90504 70.91234,18.62214 l -107.53935,259.56986 36.62701,-278.192 z M 213.95882,400.24608 319.25562,654.42664 152.11623,436.62942 c 19.28493,-14.28014 40.01945,-26.53772 61.84259,-36.38334 z m 272.57157,-1.27615 c 22.61331,9.75955 44.15604,21.96723 64.10961,36.38076 L 378.59078,659.5696 486.53039,398.96993 z M 140.24553,445.81999 309.96898,666.96481 88.800436,497.25621 c 15.276094,-18.87142 32.565194,-36.14608 51.445094,-51.43622 z m 422.36514,-1.42314 c 17.3336,13.76694 33.28503,29.29249 47.43825,46.4555 l 0.035,0.0269 0.0391,0.0579 c 1.66672,1.96082 3.29347,3.93945 4.91123,5.94103 L 389.64672,669.80785 562.61067,444.39685 z M 79.084118,509.88247 297.4828,677.46567 42.919283,572.04095 c 9.71108,-21.94018 21.914589,-42.78135 36.164835,-62.15848 z M 37.176208,585.8777 292.61053,691.69208 19.004047,655.65913 c 0.49202,-3.10493 1.024633,-6.19772 1.613703,-9.29011 l 0.01875,-0.097 0.01875,-0.097 c 3.399227,-20.69086 8.99716,-40.86714 16.520966,-60.29728 z M 624.19393,508.75295 c 14.24884,19.45082 26.26998,40.54739 35.89664,62.69465 L 404.53376,677.30383 624.19393,508.75295 z M 16.988784,670.51804 291.49542,706.68465 17.453859,742.7629 C 14.608286,718.81626 14.375971,694.54565 16.988784,670.51804 z M 665.76309,585.32592 c 8.58472,22.48112 14.741,45.91319 18.22056,69.68667 L 410.80961,690.97664 665.76309,585.32592 z M 19.566665,757.61418 299.68082,720.73645 39.493012,828.52618 c -9.193746,-22.82598 -15.91934,-46.64967 -19.926347,-70.912 z m 386.973325,-50.946 279.37057,-36.77984 c 2.70652,24.47537 2.38432,49.15545 -0.69751,73.46959 L 406.53999,706.66818 z m -2.91133,14.75624 279.34817,36.78999 c -4.19704,24.12206 -11.10791,47.78501 -20.44691,70.45915 L 403.62866,721.42442 z M 304.96688,734.79173 82.842068,905.21155 C 68.067722,885.71321 55.509009,864.57378 45.374246,842.31399 L 304.96688,734.79173 z m 95.32077,1.47703 256.23501,106.15025 c -10.15407,21.88219 -22.61447,42.72472 -37.1351,61.97102 L 400.28765,736.26876 z M 308.3721,751.08036 143.16051,966.4246 c -8.92464,-6.98059 -17.48875,-14.46174 -25.61718,-22.44203 l -0.0351,-0.0269 -0.0701,-0.0538 c -8.95469,-8.48309 -17.38379,-17.48343 -25.262836,-26.93296 L 308.37211,751.08041 z m 12.72398,8.06443 -103.77639,250.56411 c -21.87682,-9.1822 -42.76903,-20.64061 -62.13878,-34.33925 L 321.09608,759.14479 z m 72.31524,-8.07058 216.05363,165.81164 c -15.14934,18.2045 -32.22577,34.79593 -51.00578,49.26657 L 393.41132,751.07421 z m -16.70286,2.89241 169.61826,221.06411 c -5.64911,3.93063 -11.41811,7.68667 -17.33823,11.23415 l -0.1157,0.0788 -0.11584,0.0778 c -14.55972,9.46056 -29.86694,17.53312 -45.68831,24.29632 L 376.70846,753.96662 z m -41.33624,9.94933 -35.38917,268.91985 c -23.43458,-3.5443 -46.50124,-9.4339 -68.70025,-17.6211 L 335.37222,763.91595 z m 28.8051,-0.98702 104.93881,253.37667 c -22.37199,8.3112 -45.63931,14.0645 -69.30108,17.3188 L 364.17732,762.92893 z m -14.34549,5.95466 35.07892,266.45081 c -23.27471,2.1654 -46.79566,1.9439 -70.08103,-0.5763 l 35.00211,-265.87451 z" id="path5351"/>
      <path sodipodi:type="arc" style="fill:#000000;fill-opacity:1;stroke:#000000;stroke-width:15;stroke-miterlimit:4;stroke-opacity:1;stroke-dasharray:none" id="path5353" sodipodi:cx="215.11594" sodipodi:cy="730.33624" sodipodi:rx="216.41182" sodipodi:ry="112.09354" d="m 431.52776,730.33624 a 216.41182,112.09354 0 1 1 -432.8236432,0 l 216.4118232,0 z" transform="matrix(1.5476688,0,0,2.9265796,18.046801,-1429.1168)" sodipodi:start="0" sodipodi:end="3.1415927"/>
    </g>
    <path style="fill:#000000;fill-opacity:1;stroke:#000000;stroke-width:1px;stroke-linecap:butt;stroke-linejoin:miter;stroke-opacity:1;display:inline" d="m 369.21875,158.5 -101.40625,0.125 0.0312,10.75 c 12.36455,0 24.48385,0.15845 23.21875,5.5625 l 0,24.9375 -45.59375,87.5625 18.03125,0 22.06255,-46.0625 62.40625,0 21.40625,46.0625 16.8125,0 -41.375,-88.09375 -0.15625,-24.75 c 1.17921,-5.21875 9.80683,-5.21875 24.5625,-5.21875 l 0,-10.875 z m -70.375,14.84375 37.5,0 0,23 -37.5,0 0,-23 z m 1.03125,38.1875 34.25,0 9.21875,19.84375 -52.96875,0 9.5,-19.84375 z" id="path3885" inkscape:connector-curvature="0"/>
    <path style="fill:#000000;fill-opacity:1;stroke:#000000;stroke-width:0.1;stroke-linecap:butt;stroke-linejoin:miter;stroke-miterlimit:4;stroke-opacity:1;stroke-dasharray:none;display:inline" d="m 136.59148,288.37499 69.76172,10e-6 0.004,-129.082 -2.97772,0.0268 -0.0135,-35.98737 -3.00417,-0.0268 0,35.98738 -5.02991,0.0536 0,5.32622 c -20.81299,-0.15907 -35.31457,-1.04454 -11.71991,4.58391 0.81398,0.19417 2.80316,0.69503 0.90194,1.86915 -6.00889,0.0572 -12.09826,0.97286 -18.14739,2.67631 l 0.20764,95.50514 -10.23049,0.023 -0.23432,-32.11247 -4.86718,0 -0.86652,-76.92157 16.00035,0.019 0.009,-4.99833 -8.01966,-0.0211 0.007,-18.98626 8.00092,0.007 0.007,-9.00691 -4.00469,0.005 0,4.99218 -11.0045,0.003 0,-25.00391 -2.99671,0.014 -0.99938,-51.00991 -2.00781,0 -0.99219,51 -3.00781,0 0.11818,24.99084 -12.17287,0 -0.008,-4.99865 -3.89817,0.0221 -0.0242,8.97612 8.99374,0.006 0.0111,18.9975 -9.01978,0.006 0.01,4.98794 16.98678,0.0221 -0.99288,76.89786 -4.96317,0 z" id="path3083" inkscape:connector-curvature="0" sodipodi:nodetypes="cccccccccsccccccccccccccccccccccccccccccccccc"/>
    <path style="fill:#000000;fill-opacity:1;stroke:#000000;stroke-width:1px;stroke-linecap:butt;stroke-linejoin:miter;stroke-opacity:1;display:inline" d="M 209.375,287.43993 209.25,269.125 221.5,261 l 1.125,-16 4.74646,-28.48895 4.75,28.51105 1.125,16 12.25,8.125 -0.125,18.31493 z" id="path3857" inkscape:connector-curvature="0" sodipodi:nodetypes="ccccccccc"/>
    <path style="fill:#000000;fill-opacity:1;stroke:#000000;stroke-width:1px;stroke-linecap:butt;stroke-linejoin:miter;stroke-opacity:1;display:inline" d="m 35.375,261.625 0,15.75 23.485281,10.06493 33.873629,0 38.00699,-15.97856 -0.17678,-13.47393 C 88.97451,268.91987 78.85871,271.65262 35.375,261.625 z" id="path3881" inkscape:connector-curvature="0" sodipodi:nodetypes="ccccccc"/>
    <rect style="fill:#000000;fill-opacity:1;stroke:#000000;stroke-width:1;stroke-miterlimit:4;stroke-opacity:1;stroke-dasharray:none;display:inline" id="rect3883" width="22.627417" height="31.35813" x="389.17953" y="256.01688"/>
    <path style="fill:#000000;fill-opacity:1;stroke:#000000;stroke-width:1px;stroke-linecap:butt;stroke-linejoin:miter;stroke-opacity:1;display:inline" d="m 282.32692,287.375 68.11058,0 0.0726,-28.49229 -15.4375,0 0,-6.66952 -37.75,-0.009 0,6.67865 -14.92308,0.125 z" id="path3925" inkscape:connector-curvature="0" sodipodi:nodetypes="ccccccccc"/>
    <path sodipodi:type="arc" style="fill:#000000;fill-opacity:1;stroke:none;display:inline" id="path5093" sodipodi:cx="235.5" sodipodi:cy="236.5" sodipodi:rx="199.5" sodipodi:ry="199.5" d="m 425.41095,297.60712 a 199.5,199.5 0 0 1 -379.803674,0.0566" transform="matrix(1.0544554,0,0,1.0544554,-25.449257,-26.503713)" sodipodi:start="0.31130521" sodipodi:end="2.8299893" sodipodi:open="true"/>
    <path inkscape:connector-curvature="0" id="path3137" d="m 318.1875,251.6875 11.12273,-11.08348 10.68004,-0.0219 -11.95429,11.10222 z" style="fill:#000000;fill-opacity:1;stroke:#000000;stroke-width:1px;stroke-linecap:butt;stroke-linejoin:miter;stroke-opacity:1;display:inline" sodipodi:nodetypes="ccccc"/>
    <path sodipodi:nodetypes="ccccc" style="fill:#000000;fill-opacity:1;stroke:#000000;stroke-width:1px;stroke-linecap:butt;stroke-linejoin:miter;stroke-opacity:1;display:inline" d="m 314.80078,251.6875 -11.12273,-11.08348 -10.32658,0.39742 11.60083,10.6829 z" id="path3139" inkscape:connector-curvature="0"/>
    <g transform="matrix(0.99391526,0,0,1.006122,-12.625,-13.625)" style="font-size:48px;font-style:normal;font-variant:normal;font-weight:500;font-stretch:normal;line-height:122.00000286%;letter-spacing:1.50918305px;word-spacing:0px;fill:#ffffff;fill-opacity:1;stroke:none;display:inline;font-family:Futura;-inkscape-font-specification:Futura Medium" id="text3088">
      <path d="m 119.61687,336.48151 0,6.46875 c -3.15627,-2.6406 -6.42189,-3.96091 -9.79687,-3.96094 -3.71877,3e-5 -6.85158,1.33597 -9.39844,4.00781 -2.562507,2.65628 -3.843756,5.90627 -3.843748,9.75 -8e-6,3.79689 1.281241,7.00001 3.843748,9.60938 2.56249,2.60938 5.70311,3.91406 9.42188,3.91406 1.92185,0 3.55466,-0.3125 4.89843,-0.9375 0.74998,-0.3125 1.52341,-0.73437 2.32032,-1.26563 0.81247,-0.53124 1.66403,-1.17186 2.55468,-1.92187 l 0,6.58594 c -3.12502,1.76562 -6.40627,2.64843 -9.84375,2.64843 -5.17189,0 -9.58594,-1.80468 -13.242183,-5.41406 -3.640629,-3.64062 -5.46094,-8.03124 -5.460937,-13.17187 -3e-6,-4.60936 1.523433,-8.71873 4.570312,-12.32813 3.749989,-4.42184 8.601548,-6.63277 14.554688,-6.63281 3.24997,4e-5 6.3906,0.88285 9.42187,2.64844" id="path3017" inkscape:connector-curvature="0"/>
      <path d="m 133.50106,348.69244 15.60937,0 0,-14.15625 5.46094,0 0,36.1875 -5.46094,0 0,-16.89843 -15.60937,0 0,16.89843 -5.46094,0 0,-36.1875 5.46094,0 0,14.15625" id="path3019" inkscape:connector-curvature="0"/>
      <path d="m 186.05711,361.93463 -15.49218,0 -4.03125,8.78906 -5.88282,0 17.90625,-38.46093 17.27344,38.46093 -5.97656,0 -3.79688,-8.78906 m -2.22656,-5.13281 -5.36719,-12.30469 -5.625,12.30469 10.99219,0" id="path3021" inkscape:connector-curvature="0"/>
      <path d="m 200.03505,352.46588 c 0,-5.09373 1.86718,-9.46872 5.60156,-13.125 3.71874,-3.65621 8.18749,-5.48434 13.40625,-5.48437 5.15623,3e-5 9.5781,1.84378 13.26563,5.53125 3.70308,3.68752 5.55464,8.11721 5.55468,13.28906 -4e-5,5.20314 -1.85941,9.61719 -5.57812,13.24219 -3.73441,3.64062 -8.24221,5.46093 -13.52344,5.46093 -4.67189,0 -8.8672,-1.61718 -12.58594,-4.85156 -4.09375,-3.57812 -6.14062,-8.26561 -6.14062,-14.0625 m 5.50781,0.0703 c -1e-5,4.00002 1.34374,7.28908 4.03125,9.86719 2.67186,2.57813 5.7578,3.86719 9.25781,3.86719 3.79685,0 6.99998,-1.3125 9.60938,-3.9375 2.60934,-2.65624 3.91403,-5.89061 3.91406,-9.70313 -3e-5,-3.85935 -1.28909,-7.09372 -3.86719,-9.70312 -2.56252,-2.62497 -5.7344,-3.93747 -9.51562,-3.9375 -3.76564,3e-5 -6.94533,1.31253 -9.53906,3.9375 -2.59376,2.59377 -3.89064,5.7969 -3.89063,9.60937" id="path3023" inkscape:connector-curvature="0"/>
      <path d="m 266.74735,339.92682 -4.42968,2.625 c -0.82815,-1.43747 -1.61721,-2.37497 -2.36719,-2.8125 -0.78127,-0.49997 -1.78908,-0.74997 -3.02344,-0.75 -1.51564,3e-5 -2.77345,0.42972 -3.77344,1.28906 -1.00001,0.84378 -1.50001,1.90628 -1.5,3.1875 -1e-5,1.76565 1.31249,3.18753 3.9375,4.26563 l 3.60938,1.47656 c 2.93748,1.18752 5.08591,2.64064 6.44531,4.35937 1.35935,1.70314 2.03904,3.79689 2.03906,6.28125 -2e-5,3.32814 -1.1094,6.07813 -3.32812,8.25 -2.2344,2.1875 -5.00783,3.28125 -8.32031,3.28125 -3.14064,0 -5.73439,-0.92968 -7.78125,-2.78906 -2.01563,-1.85937 -3.27345,-4.47655 -3.77344,-7.85156 l 5.53125,-1.21875 c 0.24999,2.12501 0.68749,3.59376 1.3125,4.40625 1.12499,1.5625 2.76561,2.34375 4.92187,2.34375 1.70311,0 3.11717,-0.57031 4.24219,-1.71094 1.12498,-1.14062 1.68748,-2.58593 1.6875,-4.33594 -2e-5,-0.70311 -0.10158,-1.34373 -0.30469,-1.92187 -0.18752,-0.59374 -0.4922,-1.1328 -0.91406,-1.61719 -0.40627,-0.49998 -0.93752,-0.96092 -1.59375,-1.38281 -0.65627,-0.43749 -1.43752,-0.85155 -2.34375,-1.24219 l -3.49219,-1.45312 c -4.95313,-2.09373 -7.42969,-5.15623 -7.42968,-9.1875 -1e-5,-2.71872 1.03905,-4.99216 3.11718,-6.82032 2.07812,-1.84371 4.66405,-2.76558 7.75782,-2.76562 4.17185,4e-5 7.42966,2.03128 9.77343,6.09375" id="path3025" inkscape:connector-curvature="0"/>
      <path d="m 281.28779,356.02838 0,14.69531 -5.46094,0 0,-36.1875 6.1875,0 c 3.03124,4e-5 5.3203,0.21098 6.86719,0.63282 1.56248,0.42191 2.93748,1.21878 4.125,2.39062 2.0781,2.03128 3.11716,4.59378 3.11719,7.6875 -3e-5,3.31252 -1.1094,5.93752 -3.32813,7.875 -2.21877,1.93752 -5.21095,2.90627 -8.97656,2.90625 l -2.53125,0 m 0,-5.0625 2.03906,0 c 5.01561,2e-5 7.52342,-1.92966 7.52344,-5.78906 -2e-5,-3.73435 -2.58596,-5.60153 -7.75781,-5.60156 l -1.80469,0 0,11.39062" id="path3027" inkscape:connector-curvature="0"/>
      <path d="m 301.5001,352.46588 c 0,-5.09373 1.86718,-9.46872 5.60156,-13.125 3.71874,-3.65621 8.18749,-5.48434 13.40625,-5.48437 5.15622,3e-5 9.5781,1.84378 13.26563,5.53125 3.70308,3.68752 5.55464,8.11721 5.55468,13.28906 -4e-5,5.20314 -1.85941,9.61719 -5.57812,13.24219 -3.73441,3.64062 -8.24221,5.46093 -13.52344,5.46093 -4.67189,0 -8.8672,-1.61718 -12.58594,-4.85156 -4.09375,-3.57812 -6.14062,-8.26561 -6.14062,-14.0625 m 5.50781,0.0703 c -10e-6,4.00002 1.34374,7.28908 4.03125,9.86719 2.67186,2.57813 5.7578,3.86719 9.25781,3.86719 3.79685,0 6.99998,-1.3125 9.60938,-3.9375 2.60934,-2.65624 3.91403,-5.89061 3.91406,-9.70313 -3e-5,-3.85935 -1.28909,-7.09372 -3.86719,-9.70312 -2.56252,-2.62497 -5.7344,-3.93747 -9.51562,-3.9375 -3.76564,3e-5 -6.94533,1.31253 -9.53906,3.9375 -2.59376,2.59377 -3.89064,5.7969 -3.89063,9.60937" id="path3029" inkscape:connector-curvature="0"/>
      <path d="m 357.73585,339.66901 0,31.05468 -5.46094,0 0,-31.05468 -8.32031,0 0,-5.13282 22.07812,0 0,5.13282 -8.29687,0" id="path3031" inkscape:connector-curvature="0"/>
      <path d="m 382.40127,339.66901 0,31.05468 -5.46094,0 0,-31.05468 -8.32031,0 0,-5.13282 22.07812,0 0,5.13282 -8.29687,0" id="path3033" inkscape:connector-curvature="0"/>
    </g>
    <g transform="matrix(0.99391526,0,0,1.006122,-12.625,-13.625)" style="font-size:20px;font-style:normal;font-variant:normal;font-weight:500;font-stretch:normal;line-height:125%;letter-spacing:1.50918305px;word-spacing:0px;fill:#ffffff;fill-opacity:1;stroke:none;display:inline;font-family:Futura;-inkscape-font-specification:Futura Medium" id="text3092">
      <path d="m 282.78604,380.64429 -6.04492,0 0,3.62304 5.86914,0 0,2.13868 -5.86914,0 0,5.03906 6.04492,0 0,2.13867 -8.32031,0 0,-15.07812 8.32031,0 0,2.13867" id="path3036" inkscape:connector-curvature="0"/>
      <path d="m 295.82843,380.75171 -1.84571,1.09375 c -0.34506,-0.59895 -0.67383,-0.98957 -0.98632,-1.17188 -0.32553,-0.20832 -0.74545,-0.31248 -1.25977,-0.3125 -0.63152,2e-5 -1.1556,0.17905 -1.57227,0.53711 -0.41667,0.35158 -0.625,0.79429 -0.625,1.32813 0,0.73569 0.54688,1.32813 1.64063,1.77734 l 1.50391,0.61524 c 1.22395,0.4948 2.11913,1.10026 2.68554,1.8164 0.5664,0.70964 0.8496,1.58204 0.84961,2.61719 -10e-6,1.38672 -0.46225,2.53255 -1.38672,3.4375 -0.93099,0.91146 -2.08659,1.36719 -3.46679,1.36719 -1.3086,0 -2.38933,-0.38737 -3.24219,-1.16211 -0.83985,-0.77474 -1.36393,-1.86523 -1.57227,-3.27149 l 2.30469,-0.50781 c 0.10416,0.88542 0.28646,1.4974 0.54688,1.83594 0.46874,0.65104 1.15233,0.97656 2.05078,0.97656 0.70963,0 1.29882,-0.23763 1.76758,-0.71289 0.46874,-0.47526 0.70311,-1.07747 0.70312,-1.80664 -10e-6,-0.29296 -0.0423,-0.55989 -0.12695,-0.80078 -0.0781,-0.24739 -0.20509,-0.472 -0.38086,-0.67383 -0.16928,-0.20833 -0.39063,-0.40038 -0.66406,-0.57617 -0.27345,-0.18229 -0.59897,-0.35481 -0.97657,-0.51758 l -1.45508,-0.60547 c -2.0638,-0.87239 -3.0957,-2.14843 -3.0957,-3.82812 0,-1.1328 0.43294,-2.08007 1.29883,-2.8418 0.86588,-0.76821 1.94335,-1.15233 3.23242,-1.15234 1.73827,1e-5 3.0957,0.84637 4.07227,2.53906" id="path3038" inkscape:connector-curvature="0"/>
      <path d="m 309.0173,380.75171 -1.84571,1.09375 c -0.34506,-0.59895 -0.67383,-0.98957 -0.98632,-1.17188 -0.32553,-0.20832 -0.74545,-0.31248 -1.25977,-0.3125 -0.63152,2e-5 -1.1556,0.17905 -1.57226,0.53711 -0.41668,0.35158 -0.62501,0.79429 -0.625,1.32813 -1e-5,0.73569 0.54687,1.32813 1.64062,1.77734 l 1.50391,0.61524 c 1.22395,0.4948 2.11913,1.10026 2.68554,1.8164 0.5664,0.70964 0.8496,1.58204 0.84961,2.61719 -10e-6,1.38672 -0.46225,2.53255 -1.38672,3.4375 -0.93099,0.91146 -2.08659,1.36719 -3.46679,1.36719 -1.3086,0 -2.38933,-0.38737 -3.24219,-1.16211 -0.83985,-0.77474 -1.36393,-1.86523 -1.57227,-3.27149 l 2.30469,-0.50781 c 0.10416,0.88542 0.28646,1.4974 0.54688,1.83594 0.46874,0.65104 1.15234,0.97656 2.05078,0.97656 0.70963,0 1.29882,-0.23763 1.76758,-0.71289 0.46874,-0.47526 0.70311,-1.07747 0.70312,-1.80664 -10e-6,-0.29296 -0.0423,-0.55989 -0.12695,-0.80078 -0.0781,-0.24739 -0.20509,-0.472 -0.38086,-0.67383 -0.16928,-0.20833 -0.39063,-0.40038 -0.66406,-0.57617 -0.27345,-0.18229 -0.59897,-0.35481 -0.97657,-0.51758 l -1.45507,-0.60547 c -2.06381,-0.87239 -3.09571,-2.14843 -3.09571,-3.82812 0,-1.1328 0.43294,-2.08007 1.29883,-2.8418 0.86588,-0.76821 1.94335,-1.15233 3.23242,-1.15234 1.73828,1e-5 3.0957,0.84637 4.07227,2.53906" id="path3040" inkscape:connector-curvature="0"/>
      <path d="m 322.00109,380.64429 -6.04492,0 0,3.62304 5.86914,0 0,2.13868 -5.86914,0 0,5.03906 6.04492,0 0,2.13867 -8.32031,0 0,-15.07812 8.32031,0 0,2.13867" id="path3042" inkscape:connector-curvature="0"/>
      <path d="m 326.51809,393.58374 0,-16.10352 10.99609,11.50391 0,-10.47851 2.27539,0 0,15.99609 -10.99609,-11.47461 0,10.55664 -2.27539,0" id="path3044" inkscape:connector-curvature="0"/>
    </g>
  </g>
</svg>