<?xml version="1.0" encoding="UTF-8" standalone="no"?>
<!-- Created with Inkscape (http://www.inkscape.org/) -->

<svg
   xmlns:osb="http://www.openswatchbook.org/uri/2009/osb"
   xmlns:dc="http://purl.org/dc/elements/1.1/"
   xmlns:cc="http://creativecommons.org/ns#"
   xmlns:rdf="http://www.w3.org/1999/02/22-rdf-syntax-ns#"
   xmlns:svg="http://www.w3.org/2000/svg"
   xmlns="http://www.w3.org/2000/svg"
   xmlns:xlink="http://www.w3.org/1999/xlink"
   xmlns:sodipodi="http://sodipodi.sourceforge.net/DTD/sodipodi-0.dtd"
   xmlns:inkscape="http://www.inkscape.org/namespaces/inkscape"
   version="1.0"
   width="843.55383"
   height="734.2442"
   viewBox="-3.7764129 -3.7764129 146.625 127.56849"
   id="svg40181"
   inkscape:version="0.48.3.1 r9886"
   sodipodi:docname="docpatch_gg_logo_white.svg"
   inkscape:export-filename="/home/ben/projects/docpatch/img/docpatch_gg_favicon_256.png"
   inkscape:export-xdpi="27.309999"
   inkscape:export-ydpi="27.309999">
  <title
     id="title5833">DocPatch Logo Grundgesetz der BRD</title>
  <metadata
     id="metadata21">
    <rdf:RDF>
      <cc:Work
         rdf:about="">
        <dc:format>image/svg+xml</dc:format>
        <dc:type
           rdf:resource="http://purl.org/dc/dcmitype/StillImage" />
        <dc:title>DocPatch Logo Grundgesetz der BRD</dc:title>
        <cc:license
           rdf:resource="http://creativecommons.org/licenses/by-sa/3.0/" />
        <dc:date>2013-04-13</dc:date>
        <dc:creator>
          <cc:Agent>
            <dc:title>Benjamin Heisig</dc:title>
          </cc:Agent>
        </dc:creator>
        <dc:publisher>
          <cc:Agent>
            <dc:title>foobar e. V.</dc:title>
          </cc:Agent>
        </dc:publisher>
        <dc:source>http://commons.wikimedia.org/wiki/File:Deutscher_Bundestag_logo.svg</dc:source>
      </cc:Work>
      <cc:License
         rdf:about="http://creativecommons.org/licenses/by-sa/3.0/">
        <cc:permits
           rdf:resource="http://creativecommons.org/ns#Reproduction" />
        <cc:permits
           rdf:resource="http://creativecommons.org/ns#Distribution" />
        <cc:requires
           rdf:resource="http://creativecommons.org/ns#Notice" />
        <cc:requires
           rdf:resource="http://creativecommons.org/ns#Attribution" />
        <cc:permits
           rdf:resource="http://creativecommons.org/ns#DerivativeWorks" />
        <cc:requires
           rdf:resource="http://creativecommons.org/ns#ShareAlike" />
      </cc:License>
    </rdf:RDF>
  </metadata>
  <sodipodi:namedview
     pagecolor="#ffffff"
     bordercolor="#666666"
     borderopacity="1"
     objecttolerance="10"
     gridtolerance="10"
     guidetolerance="10"
     inkscape:pageopacity="1"
     inkscape:pageshadow="2"
     inkscape:window-width="1440"
     inkscape:window-height="849"
     id="namedview19"
     showgrid="false"
     fit-margin-top="0"
     fit-margin-left="0"
     fit-margin-right="0"
     fit-margin-bottom="0"
     inkscape:zoom="0.63"
     inkscape:cx="294.33107"
     inkscape:cy="448.74635"
     inkscape:window-x="-2"
     inkscape:window-y="-3"
     inkscape:window-maximized="1"
     inkscape:current-layer="svg40181" />
  <defs
     id="defs40183">
    <linearGradient
       id="linearGradient4442"
       osb:paint="solid">
      <stop
         style="stop-color:#000000;stop-opacity:1;"
         offset="0"
         id="stop4444" />
    </linearGradient>
    <linearGradient
       id="linearGradient4375"
       osb:paint="solid">
      <stop
         style="stop-color:#000000;stop-opacity:1;"
         offset="0"
         id="stop4377" />
    </linearGradient>
    <linearGradient
       id="linearGradient4365"
       osb:paint="solid">
      <stop
         style="stop-color:#000000;stop-opacity:1;"
         offset="0"
         id="stop4367" />
    </linearGradient>
    <linearGradient
       id="linearGradient4355"
       osb:paint="solid">
      <stop
         style="stop-color:#000000;stop-opacity:1;"
         offset="0"
         id="stop4357" />
    </linearGradient>
    <linearGradient
       id="linearGradient4349"
       osb:paint="solid">
      <stop
         style="stop-color:#000000;stop-opacity:1;"
         offset="0"
         id="stop4351" />
    </linearGradient>
    <linearGradient
       inkscape:collect="always"
       xlink:href="#linearGradient3759"
       id="linearGradient3763"
       x1="85.862961"
       y1="411.42038"
       x2="433.35544"
       y2="411.42038"
       gradientUnits="userSpaceOnUse" />
    <linearGradient
       id="linearGradient3759"
       osb:paint="solid">
      <stop
         style="stop-color:#000000;stop-opacity:1;"
         offset="0"
         id="stop3761" />
    </linearGradient>
  </defs>
  <path
     d="m 105.98625,102.56238 c 1.6357,1.56248 2.9785,2.85643 3.125,2.98827 0.3174,0.30274 7.0361,6.97266 15.0928,0.77149 -0.1709,-0.16603 -11.7969,-11.66994 -21.8799,-21.52345 1.3086,5.83008 2.5342,11.75781 3.6621,17.76369"
     id="path2917"
     style="fill:none;fill-opacity:0;fill-rule:nonzero;stroke:#333333;stroke-width:0.86909097000000002;stroke-miterlimit:4;stroke-dasharray:none;stroke-opacity:1"
     inkscape:connector-curvature="0" />
  <path
     d="m 79.819244,116.64929 c 0,2.10449 1.709,3.81347 3.8232,3.81347 2.0997,0 3.8086,-1.70898 3.8086,-3.81347 l 0,-9.34083 c -2.2119,-1.80663 -4.8437,-4.00878 -7.6318,-6.4502 l 0,15.79103 z"
     id="path2915"
     style="fill:none;fill-opacity:0;fill-rule:nonzero;stroke:#333333;stroke-width:0.86909097000000002;stroke-miterlimit:4;stroke-dasharray:none;stroke-opacity:1"
     inkscape:connector-curvature="0" />
  <path
     d="m 102.64155,30.667834 0,-0.04883 z m 10.6299,82.431646 c -0.9961,-0.46875 -8.0713,-4.12109 -8.0713,-4.12109 -2.9053,-16.46486 -6.142606,-30.25392 -8.833006,-40.50295 -1.5186,-6.41112 -3.2178,-13.295886 -5.0684,-20.444316 2.3584,-1.55274 9.247996,-6.97267 9.414096,-17.44142 0,0 0.039,-0.8789 0.039,-1.56738 l 0,-13.49121 39.63871,30.79102 c -0.7666,-3.59375 -5.4883,-19.24805 -21.582,-34.55079 0,0 -13.501,-12.84179 -21.948306,-12.84179 -1.4209,0 -7.7881,0.48340002 -7.7881,9.4238295 l 0,16.1083905 c 0,0 0.0489,3.3252 -2.6123,3.3252 l -0.6445,0 c -1.5625,-5.50293 -3.208,-11.04004 -4.9072,-16.52344 -0.2246,-0.71777 -0.4541,-1.4306605 -0.6787,-2.1484405 -2.2754,-7.3632795 -5.6885,-9.60448948 -8.0371,-10.7568295 -1.6309,-0.80078 -4.1065,-1.4209 -7.4561,-1.37207 -8.7598,0.14648 -10.4687,3.52539002 -10.5957,4.76562 -0.2002,2.11914 0.4102,4.57032 0.625,5.5175795 0.0732,-0.7031195 0.0586,-1.4306595 0.6592,-2.1874995 0.5908,-0.7666 1.9092,-1.34277 3.4961,-1.34277 l 6.3965,0 c 0,0 0.8007,0 0.8007,0.65429 0,0.64942 -0.8007,0.64942 -0.8007,0.64942 l -5.8399,0 c -1.2891,0 -2.2412,0.30273 -2.8174,0.9082 -0.0781,0.06836 -0.1269,0.14649 -0.1758,0.21485 0.0684,-0.0293 0.1416,-0.0586 0.2295,-0.08301 0.3711,-0.09278 0.8301,-0.10254 1.25,-0.05371 0.8106,0.12207 3.2471,0.9375 3.169,2.8417895 -0.0147,0.28321 -0.0781,0.625 -0.166,0.85938 -2.334,6.1328105 -4.4873,12.1728505 -6.4844,18.0566405 l -2.1533,0 c -2.6514,0 -2.6026,-3.3252 -2.6026,-3.3252 l 0,-16.1083905 c 0,-8.94042948 -6.36716,-9.4238295 -7.79294,-9.4238295 -8.45215,0 -21.95312,12.84179 -21.95312,12.84179 -16.0888698,15.30274 -20.8105498,30.95704 -21.5722698,34.55079 l 39.6386698,-30.79102 0,13.49121 c 0,0.68848 0.03906,1.56738 0.03906,1.56738 0.17579,11.29883 8.18848,16.71875 9.8828,17.73438 -10.41014,35.078116 -14.37498,60.654306 -14.37498,60.654306 0,0 -7.07032,3.65234 -8.07618,4.12109 -0.05371,0.0293 -2.19726,0.94726 -1.1621,3.1836 0,0 0.43457,1.09375 1.54296,1.29882 0,0 -1.01562,-1.49902 0.15625,-2.05079 l 6.24024,-2.62695 c 0,0 -2.97363,3.84767 -3.67676,4.70704 -0.04394,0.0488 -1.56738,1.8164 0.3418,3.3789 0,0 0.85937,0.79101 1.94824,0.49805 0,0 -1.57227,-0.91309 -0.74707,-1.91406 l 4.93164,-5.36621 c 0,0 -1.41113,4.30176 -1.83105,5.32715 -0.02442,0.0635 -0.9668,2.19238 1.30859,3.125 0,0 1.05957,0.5127 2.01172,-0.0879 0,0 -1.76758,-0.41993 -1.27442,-1.61134 l 1.37207,-3.05664 c 0,0 1.23047,-2.93456 2.91993,-3.22753 l 0.92773,-0.1416 c 3.67188,-0.55177 5.17578,-0.0342 5.17578,-0.0342 1.41601,0.48339 0.43946,2.33886 0.43946,2.33886 1.24515,-0.37108 1.60155,-1.68457 1.60155,-1.68457 0.791,-2.41699 -1.66015,-3.48633 -1.72362,-3.51563 -1.19142,-0.55175 -2.0459,-0.93261 -2.0459,-0.93261 0,0 14.45312,-10.996103 25.41992,-22.30958 10.9668,11.313477 25.4297,22.30958 25.4297,22.30958 0,0 -0.8594,0.38086 -2.0459,0.93261 -0.0684,0.0293 -2.5195,1.09864 -1.7334,3.51563 0,0 0.3662,1.31349 1.6064,1.68457 0,0 -0.9765,-1.85547 0.4395,-2.33886 0,0 1.5088,-0.51759 5.1807,0.0342 l 0.9228,0.1416 c 1.694306,0.29297 2.915006,3.22753 2.915006,3.22753 l 1.3819,3.05664 c 0.4883,1.19141 -1.2744,1.61134 -1.2744,1.61134 0.9472,0.60059 2.0068,0.0879 2.0068,0.0879 2.2803,-0.93262 1.333,-3.06153 1.3135,-3.125 -0.4297,-1.02539 -1.836,-5.32715 -1.836,-5.32715 l 4.9317,5.36621 c 0.8203,1.00097 -0.7471,1.91406 -0.7471,1.91406 1.084,0.29296 1.9531,-0.49805 1.9531,-0.49805 1.9092,-1.5625 0.376,-3.33007 0.337,-3.3789 -0.7032,-0.85937 -3.6719,-4.70704 -3.6719,-4.70704 l 6.2304,2.62695 c 1.1817,0.55177 0.1612,2.05079 0.1612,2.05079 1.1035,-0.20507 1.5429,-1.29882 1.5429,-1.29882 1.0401,-2.23634 -1.1035,-3.1543 -1.1669,-3.1836 M 63.842644,1.702984 c -0.9033,0 -1.6455,-0.73241998 -1.6455,-1.65038998 0,-0.90332 0.7422,-1.64550002 1.6455,-1.64550002 0.9082,0 1.6456,0.74218002 1.6456,1.64550002 0,0.91797 -0.7374,1.65038998 -1.6456,1.65038998"
     id="path2839"
     style="fill:none;fill-opacity:0;fill-rule:nonzero;stroke:#333333;stroke-width:0.86909097000000002;stroke-miterlimit:4;stroke-opacity:1;stroke-dasharray:none;stroke-dashoffset:0"
     inkscape:connector-curvature="0"
     sodipodi:nodetypes="ccccccccscccsscsccccccccscscscccccccscsscccscccccccccccccccccccccccccccccccccccccccccccccccccsssc" />
  <path
     d="m 102.67575,29.022324 c 0,0 -0.0293,1.52832 -0.0342,1.60645 -0.0147,0.98144 -0.083,1.91894 -0.2002,2.82226 8.2129,6.61621 22.8027,18.33496 23.584,18.9209 0.4687,0.34669 7.8808,6.07422 15.7275,-0.92285 -0.2979,-0.23438 -23.7793,-18.88184 -39.0771,-31.06934 l 0,8.64258 z"
     id="path2837"
     style="fill:none;fill-opacity:0;fill-rule:nonzero;stroke:#333333;stroke-width:0.86909097000000002;stroke-miterlimit:4;stroke-dasharray:none;stroke-opacity:1"
     inkscape:connector-curvature="0" />
  <path
     d="m 97.495044,44.940294 c 9.126006,7.86133 27.187506,23.364256 28.710906,24.536136 0.7178,0.51757 7.6709,5.63964 15.376,-0.9961 -0.293,-0.2539 -24.4141,-20.112296 -39.5557,-32.739256 -0.913,3.90137 -2.700206,6.93848 -4.531206,9.19922"
     id="path2835"
     style="fill:none;fill-opacity:0;fill-rule:nonzero;stroke:#333333;stroke-width:0.86909097000000002;stroke-miterlimit:4;stroke-dasharray:none;stroke-opacity:1"
     inkscape:connector-curvature="0" />
  <path
     d="m 93.505744,48.831894 c 0.8887,3.47656 1.7823,7.01173 2.666,10.595696 9.550806,8.70606 25.366306,23.14454 26.001006,23.70118 0.4688,0.41503 7.5391,6.76757 15.6983,0.01953 -0.3125,-0.26856 -26.6065,-23.74023 -41.455106,-36.972656 -1.0645,1.15234 -2.0947,2.03125 -2.9102,2.65625"
     id="path2833"
     style="fill:none;fill-opacity:0;fill-rule:nonzero;stroke:#333333;stroke-width:0.86909097000000002;stroke-miterlimit:4;stroke-dasharray:none;stroke-opacity:1"
     inkscape:connector-curvature="0" />
  <path
     d="m 98.251844,68.02134 c 1.1426,4.36524 2.236396,8.8086 3.281306,13.31055 6.9336,6.5039 14.4629,13.51563 15.1758,14.15039 0.6787,0.57617 7.1435,6.25001 15.6494,0.55664 -0.2539,-0.24414 -20.9131,-19.44824 -35.258806,-32.81249 0.3857,1.59179 0.7715,3.19335 1.1523,4.79491"
     id="path2831"
     style="fill:none;fill-opacity:0;fill-rule:nonzero;stroke:#333333;stroke-width:0.86909097000000002;stroke-miterlimit:4;stroke-dasharray:none;stroke-opacity:1"
     inkscape:connector-curvature="0" />
  <path
     d="m 51.347544,116.64929 c 0,2.10449 1.7041,3.81347 3.8086,3.81347 2.1045,0 3.8184,-1.70898 3.8184,-3.81347 l 0,-15.79103 c -2.7881,2.44142 -5.4248,4.64357 -7.627,6.4502 l 0,9.34083 z"
     id="path2829"
     style="fill:none;fill-opacity:0;fill-rule:nonzero;stroke:#333333;stroke-width:0.86909097000000002;stroke-miterlimit:4;stroke-dasharray:none;stroke-opacity:1"
     inkscape:connector-curvature="0" />
  <path
     d="m 37.231354,81.36119 c 1.26953,-5.46387 2.7832,-11.5918 4.55078,-18.2129 -14.35058,13.36915 -35.0927698,32.64649 -35.3466798,32.89063 8.5058598,5.69337 14.9707098,0.01953 15.6445298,-0.55664 0.7129,-0.63476 8.22754,-7.62695 15.15137,-14.12109"
     id="path2827"
     style="fill:none;fill-opacity:0;fill-rule:nonzero;stroke:#333333;stroke-width:0.86909097000000002;stroke-miterlimit:4;stroke-dasharray:none;stroke-opacity:1"
     inkscape:connector-curvature="0" />
  <path
     d="m 16.621004,83.12877 c 0.63965,-0.56153 16.68945,-15.21484 26.22559,-23.89649 0.88866,-3.256836 1.85058,-6.625976 2.86133,-10.087886 -0.89844,-0.65917 -2.09473,-1.63574 -3.33497,-2.96875 C 27.524324,59.41783 1.2303842,82.87974 0.9178842,83.1483 c 8.16894,6.74804 15.2343698,0.3955 15.7031198,-0.01953"
     id="path2825"
     style="fill:none;fill-opacity:0;fill-rule:nonzero;stroke:#333333;stroke-width:0.86909097000000002;stroke-miterlimit:4;stroke-dasharray:none;stroke-opacity:1"
     inkscape:connector-curvature="0" />
  <path
     d="m 32.744054,102.61608 c 0.77636,-4.125983 1.97754,-10.20998 3.68652,-17.77833 -10.07324,9.83887 -21.66504,21.31836 -21.8457,21.48439 8.05664,6.20117 14.78027,-0.46875 15.09277,-0.77149 0.14649,-0.12695 1.46484,-1.38672 3.06641,-2.93457"
     id="path2823"
     style="fill:none;fill-opacity:0;fill-rule:nonzero;stroke:#333333;stroke-width:0.86909097000000002;stroke-miterlimit:4;stroke-dasharray:none;stroke-opacity:1"
     inkscape:connector-curvature="0" />
  <path
     d="m 70.346644,116.34166 c 0,2.11914 1.7089,3.82813 3.8232,3.82813 2.1094,0 3.8281,-1.70899 3.8281,-3.82813 l 0,-17.094723 c -2.5342,-2.25586 -5.1562,-4.682617 -7.6513,-7.143557 l 0,24.23828 z"
     id="path2821"
     style="fill:none;fill-opacity:0;fill-rule:nonzero;stroke:#333333;stroke-width:0.86909097000000002;stroke-miterlimit:4;stroke-dasharray:none;stroke-opacity:1"
     inkscape:connector-curvature="0" />
  <path
     d="m 12.587804,69.47643 c 1.52832,-1.17188 19.57519,-16.669926 28.70605,-24.531246 -1.83594,-2.26563 -3.61816,-5.30274 -4.52148,-9.20411 -15.15137,12.62696 -39.2626998,32.485356 -39.5654298,32.739256 7.70996,6.63574 14.6630798,1.51367 15.3808598,0.9961"
     id="path2819"
     style="fill:none;fill-opacity:0;fill-rule:nonzero;stroke:#333333;stroke-width:0.86909097000000002;stroke-miterlimit:4;stroke-dasharray:none;stroke-opacity:1"
     inkscape:connector-curvature="0" />
  <path
     d="m -2.9590758,51.449084 c 7.85156,6.99707 15.2539098,1.26954 15.7275398,0.92285 0.78125,-0.58594 15.37598,-12.2998 23.58399,-18.9209 -0.11719,-0.89844 -0.18555,-1.84082 -0.2002,-2.82226 0,-0.07813 -0.03906,-1.60645 -0.03906,-1.60645 l 0,-8.64258 c -15.28809,12.1875 -38.7744198,30.83496 -39.0722698,31.06934"
     id="path2817"
     style="fill:none;fill-opacity:0;fill-rule:nonzero;stroke:#333333;stroke-width:0.86909097000000002;stroke-miterlimit:4;stroke-dasharray:none;stroke-opacity:1"
     inkscape:connector-curvature="0" />
  <path
     d="m 60.800744,116.34166 c 0,2.11914 1.7187,3.82813 3.8232,3.82813 2.1094,0 3.8232,-1.70899 3.8232,-3.82813 l 0,-24.23828 c -2.5,2.46094 -5.1123,4.887697 -7.6464,7.143557 l 0,17.094723 z"
     id="path26695"
     style="fill:none;fill-opacity:0;fill-rule:nonzero;stroke:#333333;stroke-width:0.86909097000000002;stroke-miterlimit:4;stroke-dasharray:none;stroke-opacity:1"
     inkscape:connector-curvature="0" />
  <g
     transform="matrix(0.17381819,0,0,0.17381819,110.07843,27.486022)"
     style="font-size:144px;font-style:normal;font-variant:normal;font-weight:normal;font-stretch:normal;line-height:125%;letter-spacing:0px;word-spacing:0px;fill:none;stroke:#333333;stroke-width:5;stroke-miterlimit:4;stroke-opacity:1;font-family:Sofachrome;-inkscape-font-specification:Sofachrome"
     id="flowRoot4401">
    <path
       d="m -282.40125,169.19818 c 0,-4.33999 -3.36,-4.34 -5.6,-4.34 l -12.74,0 0,-72.799999 c 0,-2.239998 0,-5.74 -4.2,-5.74 -2.66,0 -3.5,1.680001 -4.2,3.36 -5.31999,11.899989 -12.6,13.439999 -15.26,13.719999 -2.24,0.14 -5.18,0.42 -5.18,4.34 0,3.5 2.52,4.2 4.62,4.2 2.66,0 8.40001,-0.84 14.56,-6.16 l 0,59.08 -12.74,0 c -2.24,0 -5.6,1e-5 -5.6,4.34 0,4.2 3.5,4.2 5.6,4.2 l 35.14,0 c 2.1,0 5.6,0 5.6,-4.2"
       style="font-size:140px;text-align:start;writing-mode:lr-tb;text-anchor:start;stroke:#008000;font-family:LMMono10;-inkscape-font-specification:LMMono10;stroke-opacity:1"
       id="path4449" />
    <path
       d="m -204.36656,130.69818 c 0,-26.03997 -14.28002,-44.379999 -29.68,-44.379999 -15.67999,0 -29.68,18.760029 -29.68,44.239999 0,26.03997 14.28001,44.38 29.68,44.38 15.67998,0 29.68,-18.76002 29.68,-44.24 m -9.66,-1.54 c 0,20.71998 -9.10001,37.24 -20.02,37.24 -10.91999,0 -20.02,-16.52002 -20.02,-37.24 0,-20.43998 9.66001,-34.299999 20.02,-34.299999 10.21999,0 20.02,13.720019 20.02,34.299999"
       style="font-size:140px;text-align:start;writing-mode:lr-tb;text-anchor:start;stroke:#008000;font-family:LMMono10;-inkscape-font-specification:LMMono10;stroke-opacity:1"
       id="path4451" />
    <path
       d="m -135.29187,169.19818 c 0,-4.33999 -3.36001,-4.34 -5.6,-4.34 l -12.74,0 0,-72.799999 c 0,-2.239998 -1e-5,-5.74 -4.2,-5.74 -2.66,0 -3.50001,1.680001 -4.20001,3.36 -5.31999,11.899989 -12.6,13.439999 -15.25999,13.719999 -2.24,0.14 -5.18,0.42 -5.18,4.34 0,3.5 2.52,4.2 4.62,4.2 2.65999,0 8.4,-0.84 14.56,-6.16 l 0,59.08 -12.74001,0 c -2.23999,0 -5.59999,1e-5 -5.59999,4.34 0,4.2 3.5,4.2 5.59999,4.2 l 35.14001,0 c 2.09999,0 5.6,0 5.6,-4.2"
       style="font-size:140px;text-align:start;writing-mode:lr-tb;text-anchor:start;stroke:#008000;font-family:LMMono10;-inkscape-font-specification:LMMono10;stroke-opacity:1"
       id="path4453" />
    <path
       d="m -277.92125,242.69818 c 0,-26.03997 -14.28002,-44.38 -29.68,-44.38 -15.67998,0 -29.68,18.76003 -29.68,44.24 0,26.03997 14.28002,44.38 29.68,44.38 15.67998,0 29.68,-18.76002 29.68,-44.24 m -9.66,-1.54 c 0,20.71998 -9.10001,37.24 -20.02,37.24 -10.91999,0 -20.02,-16.52002 -20.02,-37.24 0,-20.43998 9.66001,-34.3 20.02,-34.3 10.21999,0 20.02,13.72002 20.02,34.3"
       style="font-size:140px;text-align:start;writing-mode:lr-tb;text-anchor:start;stroke:#c00000;font-family:LMMono10;-inkscape-font-specification:LMMono10;stroke-opacity:1"
       id="path4455" />
    <path
       d="m -208.84656,281.19818 c 0,-4.33999 -3.36,-4.34 -5.6,-4.34 l -12.74,0 0,-72.8 c 0,-2.24 -1e-5,-5.74 -4.2,-5.74 -2.66,0 -3.5,1.68 -4.2,3.36 -5.32,11.89999 -12.60001,13.44 -15.26,13.72 -2.24,0.14 -5.18,0.42 -5.18,4.34 0,3.5 2.52,4.2 4.62,4.2 2.65999,0 8.4,-0.84 14.56,-6.16 l 0,59.08 -12.74,0 c -2.24,0 -5.6,10e-6 -5.6,4.34 0,4.2 3.5,4.2 5.6,4.2 l 35.14,0 c 2.1,0 5.6,0 5.6,-4.2"
       style="font-size:140px;text-align:start;writing-mode:lr-tb;text-anchor:start;stroke:#c00000;font-family:LMMono10;-inkscape-font-specification:LMMono10;stroke-opacity:1"
       id="path4457" />
    <path
       d="m -130.81187,242.69818 c 0,-26.03997 -14.28002,-44.38 -29.68,-44.38 -15.67999,0 -29.68,18.76003 -29.68,44.24 0,26.03997 14.28001,44.38 29.68,44.38 15.67998,0 29.68,-18.76002 29.68,-44.24 m -9.66,-1.54 c 0,20.71998 -9.10002,37.24 -20.02,37.24 -10.91999,0 -20.02,-16.52002 -20.02,-37.24 0,-20.43998 9.66001,-34.3 20.02,-34.3 10.21998,0 20.02,13.72002 20.02,34.3"
       style="font-size:140px;text-align:start;writing-mode:lr-tb;text-anchor:start;stroke:#c00000;font-family:LMMono10;-inkscape-font-specification:LMMono10;stroke-opacity:1"
       id="path4459" />
  </g>
</svg>
